<?xml version="1.0" standalone="no"?>
<!DOCTYPE svg PUBLIC "-//W3C//DTD SVG 20010904//EN"
 "http://www.w3.org/TR/2001/REC-SVG-20010904/DTD/svg10.dtd">
<svg version="1.0" xmlns="http://www.w3.org/2000/svg"
 width="768.000000pt" height="768.000000pt" viewBox="0 0 768.000000 768.000000"
 preserveAspectRatio="xMidYMid meet">
<metadata>
Created by potrace 1.11, written by Peter Selinger 2001-2013
</metadata>
<g transform="translate(0.000000,768.000000) scale(0.100000,-0.100000)"
fill="#000000" stroke="none">
<path d="M0 6681 l0 -800 338 -1 c185 0 369 -2 407 -5 89 -6 166 -15 185 -20
8 -2 31 -6 50 -9 19 -3 49 -9 65 -12 17 -4 37 -8 45 -9 8 -1 22 -5 30 -8 8 -3
29 -9 45 -13 105 -26 291 -100 414 -166 87 -47 255 -156 288 -187 12 -12 27
-21 32 -21 29 0 371 -368 371 -399 0 -6 6 -14 13 -18 13 -7 28 -30 100 -151
31 -53 105 -206 129 -267 28 -70 40 -104 39 -109 0 -3 6 -21 15 -41 8 -19 14
-38 14 -42 0 -5 5 -26 11 -48 6 -22 13 -48 15 -57 2 -10 6 -28 9 -40 3 -13 8
-39 11 -58 3 -19 7 -46 10 -60 19 -94 26 -423 11 -520 -4 -25 -9 -63 -12 -85
-5 -50 -13 -89 -27 -140 -5 -22 -12 -50 -14 -63 -7 -34 -69 -221 -93 -275 -11
-26 -21 -49 -21 -52 0 -3 -23 -49 -52 -102 -28 -54 -58 -110 -65 -125 -8 -16
-18 -28 -21 -28 -4 0 -13 -14 -20 -30 -8 -17 -19 -36 -26 -43 -6 -6 -29 -37
-51 -67 -70 -98 -252 -287 -330 -345 -22 -16 -45 -34 -50 -41 -33 -38 -367
-234 -399 -234 -8 0 -16 -4 -18 -8 -3 -8 -207 -87 -250 -97 -13 -3 -57 -14
-98 -25 -41 -11 -95 -23 -120 -26 -24 -3 -47 -7 -50 -9 -5 -3 -52 -8 -172 -20
-18 -2 -196 -4 -395 -5 l-363 -1 0 -800 0 -801 448 5 c246 3 470 8 497 11 28
4 102 14 165 22 155 22 154 22 160 24 3 1 10 3 15 4 55 9 102 19 110 24 5 3
21 7 35 9 43 5 55 8 67 16 7 5 13 6 13 3 0 -3 11 -1 25 4 14 5 36 12 48 14 12
2 81 23 152 47 72 24 132 44 135 44 3 1 14 5 25 10 11 4 65 26 120 48 55 22
103 45 107 51 4 6 8 8 8 4 0 -7 259 119 270 132 3 3 16 11 30 17 14 7 41 23
61 35 20 13 61 38 90 56 107 65 326 226 406 298 17 16 57 51 87 78 65 57 209
203 263 266 21 24 53 60 71 79 17 19 32 38 32 42 0 3 10 17 23 31 64 70 273
377 275 402 0 5 5 12 10 15 9 5 143 253 158 291 3 8 17 40 31 70 115 251 238
656 268 884 3 21 7 42 9 45 7 10 16 91 34 291 3 41 6 167 6 280 0 188 -3 236
-18 400 -6 58 -21 154 -36 230 -5 25 -12 62 -15 84 -3 21 -8 43 -11 48 -3 5
-7 19 -9 31 -3 33 -63 253 -87 322 -41 120 -91 250 -99 259 -5 6 -9 15 -9 22
0 7 -25 66 -57 131 -31 65 -57 120 -57 123 -2 12 -122 221 -162 283 -24 37
-44 72 -44 77 0 6 -4 10 -8 10 -4 0 -16 14 -26 30 -19 33 -163 227 -187 253
-8 9 -30 35 -49 58 -170 203 -429 439 -650 591 -41 29 -76 56 -78 60 -2 4 -8
8 -13 8 -6 0 -37 18 -70 40 -33 22 -65 40 -70 40 -5 0 -9 4 -9 9 0 5 -11 12
-24 15 -14 3 -31 12 -38 19 -12 12 -290 151 -381 192 -120 53 -451 164 -530
179 -12 2 -42 9 -67 16 -25 7 -56 14 -70 17 -14 2 -43 9 -65 14 -22 5 -58 12
-80 14 -41 6 -80 12 -80 15 0 1 -20 3 -45 5 -25 2 -61 7 -80 10 -68 13 -169
17 -597 22 l-433 5 0 -801z"/>
<path d="M2935 7456 c17 -14 34 -25 38 -26 7 0 67 -39 112 -73 5 -4 48 -35 95
-69 47 -35 91 -68 98 -75 8 -7 30 -26 50 -41 21 -15 42 -31 48 -37 6 -5 44
-39 85 -75 85 -75 292 -281 362 -361 26 -29 56 -63 66 -74 48 -55 215 -270
248 -321 7 -11 31 -45 53 -76 22 -31 40 -61 40 -67 0 -6 3 -11 8 -11 4 0 12
-9 17 -20 6 -10 41 -71 78 -135 64 -107 78 -122 112 -115 20 4 1032 -1 1075
-5 25 -3 56 -8 70 -11 14 -4 30 -8 37 -10 27 -5 153 -68 153 -75 0 -5 6 -9 14
-9 23 0 159 -139 187 -192 6 -13 15 -25 19 -28 12 -9 60 -138 70 -189 15 -79
1 -248 -23 -278 -5 -7 -7 -13 -3 -13 3 0 -6 -24 -20 -52 -65 -129 -171 -244
-269 -293 -22 -11 -47 -25 -55 -32 -8 -6 -26 -14 -40 -16 -14 -3 -38 -10 -55
-17 -16 -6 -65 -13 -108 -15 -43 -3 -82 -7 -87 -10 -6 -4 -10 -2 -10 4 0 6
-11 6 -30 1 -18 -5 -32 -5 -36 1 -3 5 -10 7 -15 3 -13 -8 -99 -11 -99 -4 0 6
-109 2 -127 -5 -7 -2 -13 0 -13 5 0 5 -13 5 -30 0 -16 -5 -30 -6 -30 -2 0 8
-85 6 -99 -2 -5 -4 -12 -2 -15 2 -6 10 -54 4 -60 -7 -2 -3 -1 -27 4 -51 39
-211 62 -475 63 -720 0 -142 -11 -403 -19 -444 -2 -12 -6 -41 -9 -66 -2 -25
-8 -70 -12 -100 -3 -30 -7 -63 -7 -72 0 -10 -3 -18 -6 -18 -3 0 -6 -10 -7 -22
0 -13 -3 -42 -6 -64 l-5 -41 34 7 c19 4 34 5 34 1 0 -3 38 -6 85 -6 47 0 85 2
85 5 0 3 18 5 40 5 22 0 40 -3 40 -7 0 -4 14 -3 30 2 16 5 30 6 30 2 0 -6 110
-7 210 -2 44 2 143 -9 179 -21 56 -17 171 -72 171 -81 0 -4 6 -8 14 -8 20 0
176 -156 176 -175 0 -8 4 -15 8 -15 18 0 97 -194 86 -211 -3 -5 -1 -9 4 -9 8
0 8 -187 0 -220 -10 -40 -32 -96 -41 -107 -5 -7 -7 -13 -3 -13 3 0 -13 -30
-36 -67 -58 -91 -151 -184 -229 -227 -68 -38 -92 -49 -128 -58 -20 -5 -45 -11
-56 -14 -43 -12 -108 -13 -638 -14 -354 0 -546 -4 -542 -10 3 -6 3 -10 -2 -10
-4 0 -19 -23 -32 -50 -14 -28 -29 -50 -33 -50 -4 0 -7 -3 -6 -7 1 -5 -5 -19
-13 -33 -9 -14 -31 -50 -50 -80 -18 -30 -37 -56 -41 -58 -5 -2 -8 -8 -8 -13 0
-5 -14 -28 -30 -52 -17 -23 -37 -51 -44 -62 -39 -56 -140 -191 -146 -195 -3
-3 -13 -15 -21 -26 -82 -121 -395 -442 -584 -599 -33 -28 -65 -54 -71 -60 -6
-5 -23 -19 -38 -30 -16 -11 -33 -25 -40 -30 -6 -6 -27 -22 -46 -35 -19 -13
-37 -27 -40 -30 -3 -4 -50 -37 -105 -73 -55 -37 -109 -74 -120 -82 -18 -14
116 -15 1335 -14 1355 1 1407 2 1583 34 15 3 42 8 60 11 98 18 359 98 412 127
11 6 23 11 26 12 9 0 172 78 179 85 3 3 25 16 50 29 70 38 187 119 270 184
260 208 468 468 614 768 54 111 136 328 151 397 2 9 10 46 19 82 19 84 23 107
38 215 18 138 14 534 -7 605 -2 8 -7 31 -10 50 -5 33 -10 61 -20 105 -3 16
-37 143 -48 180 -26 87 -88 238 -138 335 -66 127 -123 226 -139 240 -3 3 -16
21 -27 40 -12 19 -30 44 -40 55 -10 11 -29 35 -41 53 l-23 32 22 33 c13 17 28
37 34 42 19 17 130 186 161 245 16 30 32 57 37 58 4 2 7 8 7 13 0 5 14 37 31
71 27 55 107 255 113 283 2 6 9 30 16 55 7 25 14 50 16 55 20 82 35 148 39
180 4 22 8 51 11 65 19 113 26 445 10 555 -3 28 -9 68 -12 90 -3 22 -6 47 -8
55 -1 8 -6 33 -11 55 -29 153 -102 375 -166 505 -21 45 -39 85 -39 90 0 6 -4
10 -10 10 -5 0 -10 6 -10 14 0 7 -9 25 -21 40 -11 14 -18 26 -15 26 5 0 -53
94 -72 115 -4 6 -27 38 -50 71 -23 34 -47 68 -54 75 -7 8 -28 32 -47 54 -224
266 -516 479 -841 613 -83 35 -229 85 -282 98 -42 10 -65 15 -93 19 -16 3 -38
8 -47 11 -22 7 -82 17 -175 31 -21 3 -661 8 -1423 10 l-1385 3 30 -24z"/>
</g>
</svg>
